<svg width="60" height="21" viewBox="0 0 60 21" fill="none" xmlns="http://www.w3.org/2000/svg">
<path d="M0.275 20.5V3H7.45C8.73333 3 9.89167 3.21667 10.925 3.65C11.975 4.06667 12.875 4.66667 13.625 5.45C14.3917 6.21667 14.975 7.13333 15.375 8.2C15.775 9.26667 15.975 10.45 15.975 11.75C15.975 13.0333 15.775 14.2167 15.375 15.3C14.975 16.3667 14.4 17.2917 13.65 18.075C12.9 18.8417 12 19.4417 10.95 19.875C9.9 20.2917 8.73333 20.5 7.45 20.5H0.275ZM4.025 17.775L3.625 17.125H7.325C8.075 17.125 8.75 17 9.35 16.75C9.95 16.4833 10.4583 16.125 10.875 15.675C11.3083 15.2083 11.6333 14.6417 11.85 13.975C12.0667 13.3083 12.175 12.5667 12.175 11.75C12.175 10.9333 12.0667 10.2 11.85 9.55C11.6333 8.88333 11.3083 8.31667 10.875 7.85C10.4583 7.38333 9.95 7.025 9.35 6.775C8.75 6.50833 8.075 6.375 7.325 6.375H3.55L4.025 5.775V17.775ZM22.8918 20.75C21.4585 20.75 20.2085 20.4583 19.1418 19.875C18.0751 19.2917 17.2418 18.4917 16.6418 17.475C16.0418 16.4583 15.7418 15.2917 15.7418 13.975C15.7418 12.9583 15.9085 12.025 16.2418 11.175C16.5751 10.325 17.0418 9.59167 17.6418 8.975C18.2418 8.34167 18.9501 7.85833 19.7668 7.525C20.6001 7.175 21.5001 7 22.4668 7C23.3668 7 24.2001 7.16667 24.9668 7.5C25.7335 7.81667 26.3918 8.275 26.9418 8.875C27.5085 9.45833 27.9418 10.15 28.2418 10.95C28.5418 11.75 28.6751 12.625 28.6418 13.575L28.6168 14.675H17.9918L17.4168 12.5H25.6918L25.2918 12.95V12.4C25.2585 11.95 25.1085 11.5417 24.8418 11.175C24.5918 10.8083 24.2668 10.525 23.8668 10.325C23.4668 10.125 23.0168 10.025 22.5168 10.025C21.7835 10.025 21.1585 10.1667 20.6418 10.45C20.1418 10.7333 19.7585 11.15 19.4918 11.7C19.2251 12.25 19.0918 12.9167 19.0918 13.7C19.0918 14.5 19.2585 15.1917 19.5918 15.775C19.9418 16.3583 20.4251 16.8167 21.0418 17.15C21.6751 17.4667 22.4168 17.625 23.2668 17.625C23.8501 17.625 24.3835 17.5333 24.8668 17.35C25.3501 17.1667 25.8668 16.85 26.4168 16.4L28.1168 18.775C27.6335 19.2083 27.1001 19.575 26.5168 19.875C25.9335 20.1583 25.3335 20.375 24.7168 20.525C24.1001 20.675 23.4918 20.75 22.8918 20.75ZM32.9211 20.5L27.3711 7.275H31.2711L34.7961 17.15L33.9711 17.3L37.6711 7.275H41.4711L35.6461 20.5H32.9211ZM41.6893 20.5V7.275H45.2393V20.5H41.6893ZM43.4393 4.55C42.7559 4.55 42.2226 4.38333 41.8393 4.05C41.4559 3.71667 41.2643 3.24167 41.2643 2.625C41.2643 2.05833 41.4559 1.6 41.8393 1.25C42.2393 0.883332 42.7726 0.699999 43.4393 0.699999C44.1226 0.699999 44.6559 0.874999 45.0393 1.225C45.4226 1.55833 45.6143 2.025 45.6143 2.625C45.6143 3.20833 45.4143 3.675 45.0143 4.025C44.6309 4.375 44.1059 4.55 43.4393 4.55ZM52.9309 20.75C51.5809 20.75 50.3725 20.4583 49.3059 19.875C48.2559 19.275 47.4225 18.4583 46.8059 17.425C46.2059 16.3917 45.9059 15.2083 45.9059 13.875C45.9059 12.5417 46.2059 11.3667 46.8059 10.35C47.4225 9.31667 48.2559 8.5 49.3059 7.9C50.3725 7.3 51.5809 7 52.9309 7C54.2642 7 55.4559 7.3 56.5059 7.9C57.5725 8.5 58.4059 9.31667 59.0059 10.35C59.6059 11.3667 59.9059 12.5417 59.9059 13.875C59.9059 15.2083 59.6059 16.3917 59.0059 17.425C58.4059 18.4583 57.5725 19.275 56.5059 19.875C55.4559 20.4583 54.2642 20.75 52.9309 20.75ZM52.9309 17.65C53.5809 17.65 54.1642 17.4917 54.6809 17.175C55.1975 16.8417 55.5975 16.3917 55.8809 15.825C56.1809 15.2417 56.3309 14.5917 56.3309 13.875C56.3309 13.1417 56.1809 12.4917 55.8809 11.925C55.5975 11.3417 55.1975 10.8917 54.6809 10.575C54.1642 10.2417 53.5809 10.075 52.9309 10.075C52.2642 10.075 51.6725 10.2417 51.1559 10.575C50.6392 10.9083 50.2309 11.3583 49.9309 11.925C49.6309 12.4917 49.4892 13.1417 49.5059 13.875C49.4892 14.5917 49.6309 15.2417 49.9309 15.825C50.2309 16.3917 50.6392 16.8417 51.1559 17.175C51.6725 17.4917 52.2642 17.65 52.9309 17.65Z" fill="white"/>
</svg>
