<svg width="51" height="50" viewBox="0 0 51 50" fill="none" xmlns="http://www.w3.org/2000/svg">
<path d="M18.9196 7.21835C20.7406 6.41654 22.4628 4.46752 23.827 7.58224C23.8746 7.68842 23.8955 7.80458 23.8879 7.92065C23.8804 8.03672 23.8447 8.1492 23.7838 8.24836L22.469 10.3639C22.3852 10.4988 22.3337 10.6513 22.3187 10.8093C22.3036 10.9673 22.3254 11.1265 22.3823 11.2743C22.4392 11.422 22.5296 11.5544 22.6464 11.6608C22.7633 11.7672 22.9033 11.8447 23.0554 11.8873L25.8209 12.6583C26.0925 12.7323 26.2221 12.9091 26.2097 13.1887L26.1418 15.403C26.1377 15.5921 26.0431 15.7134 25.8579 15.7669L22.9073 16.5872C22.7748 16.6242 22.6527 16.6913 22.5506 16.7835C22.4485 16.8756 22.3692 16.9901 22.319 17.1181C22.2687 17.246 22.2489 17.3839 22.261 17.5208C22.2731 17.6577 22.3168 17.7899 22.3888 17.9071L23.7344 20.0781C23.862 20.285 23.9122 20.5301 23.876 20.7696C23.8398 21.0092 23.7196 21.2276 23.5369 21.3857L22.2097 22.5576C22.0081 22.7344 21.79 22.757 21.5554 22.6254L19.1357 21.2685C19.0003 21.1936 18.8493 21.1509 18.6948 21.1438C18.5402 21.1367 18.3863 21.1653 18.2451 21.2275C18.1038 21.2897 17.9792 21.3837 17.8809 21.5021C17.7827 21.6205 17.7135 21.7602 17.6789 21.91L17.0554 24.5744C17.0287 24.6897 16.9632 24.7923 16.87 24.8652C16.7768 24.9381 16.6615 24.977 16.5431 24.9753L14.2715 24.963C14.1518 24.9635 14.0354 24.9236 13.9413 24.8497C13.8472 24.7758 13.7808 24.6723 13.753 24.5559L13.0246 21.6694C12.9934 21.5483 12.9347 21.436 12.8531 21.3412C12.7715 21.2465 12.6692 21.172 12.5543 21.1236C12.4394 21.0752 12.315 21.0541 12.191 21.0622C12.0669 21.0702 11.9465 21.107 11.8394 21.1698L9.39493 22.5946C9.20974 22.7015 9.0225 22.7056 8.8332 22.6069C8.05954 22.1957 7.42785 21.6262 6.93814 20.8984C6.8737 20.8026 6.83824 20.6904 6.83605 20.5755C6.83386 20.4605 6.86503 20.3478 6.92579 20.2508L8.27765 18.1353C8.36708 17.9952 8.42277 17.8363 8.44027 17.6712C8.45777 17.5061 8.4366 17.3393 8.37845 17.1842C8.3203 17.029 8.22677 16.8898 8.10532 16.7776C7.98386 16.6654 7.83784 16.5833 7.67888 16.5378L4.96283 15.7484C4.72003 15.6743 4.59863 15.5119 4.59863 15.2611L4.60481 13.0901C4.60481 12.8762 4.70769 12.7385 4.91345 12.6768L7.77765 11.8318C7.9338 11.7856 8.07678 11.7031 8.19485 11.591C8.31293 11.4789 8.40275 11.3405 8.45696 11.187C8.51116 11.0336 8.5282 10.8695 8.50669 10.7082C8.48518 10.5469 8.42573 10.393 8.3332 10.2591C6.93814 8.25453 6.02456 7.42805 8.75295 5.8306C8.93814 5.71958 9.12538 5.71752 9.31468 5.82443L11.7653 7.19984C11.8822 7.26553 12.0126 7.30335 12.1465 7.31036C12.2804 7.31736 12.4142 7.29336 12.5372 7.24023C12.6603 7.18709 12.7695 7.10626 12.8561 7.00403C12.9428 6.90181 13.0047 6.78096 13.0369 6.65091L13.7159 3.91242C13.7612 3.73562 13.8723 3.62254 14.0493 3.5732C14.9176 3.34293 15.7879 3.33471 16.6604 3.54853C16.7664 3.57428 16.8634 3.62937 16.9407 3.70771C17.018 3.78606 17.0727 3.88464 17.0986 3.99261L17.7406 6.63241C17.7698 6.75445 17.8254 6.86861 17.9036 6.96682C17.9818 7.06502 18.0806 7.14489 18.193 7.20077C18.3055 7.25665 18.4288 7.28719 18.5544 7.29022C18.6799 7.29326 18.8046 7.26872 18.9196 7.21835ZM20.0184 14.2064C20.0184 12.9828 19.5319 11.8094 18.666 10.9442C17.8001 10.079 16.6257 9.59293 15.4011 9.59293C14.1765 9.59293 13.0021 10.079 12.1362 10.9442C11.2703 11.8094 10.7838 12.9828 10.7838 14.2064C10.7838 14.8123 10.9032 15.4122 11.1353 15.9719C11.3673 16.5317 11.7074 17.0402 12.1362 17.4686C13.0021 18.3338 14.1765 18.8199 15.4011 18.8199C16.6257 18.8199 17.8001 18.3338 18.666 17.4686C19.5319 16.6035 20.0184 15.43 20.0184 14.2064Z" fill="#2FFEC2"/>
<path d="M15.4009 17.241C17.0851 17.241 18.4503 15.8768 18.4503 14.1941C18.4503 12.5113 17.0851 11.1472 15.4009 11.1472C13.7168 11.1472 12.3516 12.5113 12.3516 14.1941C12.3516 15.8768 13.7168 17.241 15.4009 17.241Z" fill="#2FFEC2"/>
<path d="M35.0371 15.7484H27.9877C27.8354 15.7484 27.7593 15.6723 27.7593 15.5202L27.7716 12.8865C27.7716 12.8276 27.795 12.7712 27.8367 12.7295C27.8784 12.6879 27.9349 12.6645 27.9938 12.6645L37.2655 12.6707C37.5978 12.6707 37.9165 12.8026 38.1515 13.0374C38.3865 13.2722 38.5185 13.5906 38.5185 13.9227L38.5062 20.2077C38.5062 20.2535 38.488 20.2974 38.4556 20.3298C38.4232 20.3622 38.3792 20.3804 38.3334 20.3804L35.6667 20.368C35.5473 20.368 35.4856 20.3084 35.4815 20.1892L35.4568 16.1678C35.4568 15.8882 35.3169 15.7484 35.0371 15.7484Z" fill="#2FFEC2"/>
<path d="M37.0985 21.7249L47.5244 27.794C47.5551 27.812 47.5806 27.8376 47.5984 27.8685C47.6161 27.8993 47.6254 27.9342 47.6254 27.9698C47.6254 28.0054 47.6161 28.0403 47.5984 28.0712C47.5806 28.102 47.5551 28.1277 47.5244 28.1456L37.117 34.2085C37.0853 34.2275 37.049 34.2376 37.0121 34.2376C36.9751 34.2376 36.9388 34.2275 36.9071 34.2085L26.5861 28.1456C26.5568 28.1273 26.5326 28.1019 26.5158 28.0716C26.499 28.0414 26.4902 28.0074 26.4902 27.9729C26.4902 27.9383 26.499 27.9044 26.5158 27.8741C26.5326 27.8439 26.5568 27.8185 26.5861 27.8002L36.8886 21.7249C36.9203 21.7059 36.9566 21.6959 36.9935 21.6959C37.0305 21.6959 37.0668 21.7059 37.0985 21.7249Z" fill="#2FFEC2"/>
<path d="M17.1725 34.2517H24.4009C24.4648 34.2517 24.526 34.277 24.5712 34.3222C24.6163 34.3673 24.6417 34.4284 24.6417 34.4922L24.6479 37.1012C24.6479 37.165 24.6225 37.2262 24.5773 37.2713C24.5322 37.3164 24.471 37.3417 24.4071 37.3417L14.1232 37.3232C14.0593 37.3232 13.9981 37.2979 13.9529 37.2528C13.9078 37.2077 13.8824 37.1465 13.8824 37.0827L13.8516 26.7825C13.8516 26.7509 13.8578 26.7197 13.8699 26.6905C13.882 26.6613 13.8997 26.6348 13.9221 26.6124C13.9444 26.5901 13.971 26.5724 14.0002 26.5603C14.0294 26.5482 14.0607 26.542 14.0923 26.542L16.6664 26.5358C16.7302 26.5358 16.7915 26.5612 16.8366 26.6063C16.8818 26.6514 16.9071 26.7126 16.9071 26.7764L16.9318 34.0112C16.9318 34.075 16.9572 34.1361 17.0023 34.1812C17.0475 34.2264 17.1087 34.2517 17.1725 34.2517Z" fill="#2FFEC2"/>
<path d="M35.8515 46.3528L26.3145 40.4256C26.2815 40.4045 26.2545 40.3752 26.2362 40.3406C26.2178 40.3061 26.2086 40.2674 26.2095 40.2282L26.2157 30.0083C26.2154 29.9678 26.2259 29.9279 26.2462 29.8928C26.2664 29.8577 26.2956 29.8287 26.3308 29.8086C26.366 29.7885 26.4059 29.7781 26.4464 29.7785C26.4869 29.7789 26.5266 29.7901 26.5614 29.8109L36.1293 35.4236C36.1634 35.444 36.1916 35.4729 36.2111 35.5075C36.2306 35.5421 36.2407 35.5812 36.2404 35.6209L36.1972 46.1616C36.1964 46.2016 36.1851 46.2407 36.1644 46.2749C36.1438 46.3091 36.1145 46.3373 36.0795 46.3567C36.0444 46.3761 36.005 46.3859 35.965 46.3852C35.925 46.3845 35.8858 46.3734 35.8515 46.3528Z" fill="#2FFEC2"/>
<path d="M37.9135 35.4297L47.4506 29.854C47.4823 29.8357 47.5182 29.8261 47.5548 29.8259C47.5914 29.8258 47.6274 29.8353 47.6593 29.8533C47.6911 29.8714 47.7176 29.8975 47.7363 29.929C47.7549 29.9605 47.7649 29.9963 47.7654 30.0329L47.7592 40.3269C47.7594 40.3626 47.7504 40.3979 47.7331 40.4292C47.7158 40.4605 47.6908 40.4868 47.6604 40.5058L38.1296 46.3898C38.0977 46.4097 38.0612 46.4206 38.0236 46.4215C37.9861 46.4225 37.949 46.4133 37.9162 46.3951C37.8835 46.3768 37.8562 46.3501 37.8373 46.3177C37.8183 46.2853 37.8084 46.2484 37.8086 46.2109V35.6086C37.8091 35.5722 37.819 35.5366 37.8374 35.5053C37.8558 35.4739 37.882 35.4479 37.9135 35.4297Z" fill="#2FFEC2"/>
</svg>
