<svg width="51" height="50" viewBox="0 0 51 50" fill="none" xmlns="http://www.w3.org/2000/svg">
<g clip-path="url(#clip0_2857_1528)">
<path d="M29.458 30.8125C31.5413 32.8281 36.2653 39.2604 34.1663 42.0312C33.6906 42.6632 33.2358 43.2535 32.8018 43.8021" stroke="#F9E16B" stroke-width="2"/>
<path d="M35.562 43.8021C38.7339 39.1354 34.5308 33.4427 31.5151 29.8542" stroke="#F9E16B" stroke-width="2"/>
<path d="M17.5055 23.7448C16.4836 23.743 15.4722 23.518 14.5289 23.0827C13.5855 22.6473 12.7289 22.0101 12.0077 21.2075C11.2865 20.4048 10.715 19.4524 10.3258 18.4047C9.9366 17.3569 9.73729 16.2343 9.73927 15.101C9.74125 13.9677 9.94448 12.8458 10.3373 11.7994C10.7302 10.753 11.305 9.80263 12.029 9.00251C12.7529 8.20238 13.6119 7.56818 14.5567 7.13612C15.5015 6.70406 16.5137 6.4826 17.5356 6.48439C18.5574 6.48617 19.5689 6.71116 20.5122 7.14651C21.4555 7.58187 22.3122 8.21906 23.0334 9.02172C23.7545 9.82437 24.326 10.7768 24.7152 11.8245C25.1044 12.8723 25.3038 13.9949 25.3018 15.1282C25.2998 16.2615 25.0966 17.3834 24.7037 18.4298C24.3108 19.4762 23.736 20.4266 23.012 21.2267C22.2881 22.0268 21.4292 22.661 20.4844 23.0931C19.5395 23.5251 18.5273 23.7466 17.5055 23.7448ZM17.5091 21.6823C18.2607 21.6836 19.0054 21.5152 19.7004 21.1866C20.3954 20.858 21.0273 20.3757 21.5599 19.7673C22.0925 19.1588 22.5153 18.4361 22.8044 17.6404C23.0934 16.8447 23.243 15.9916 23.2445 15.1298C23.246 14.268 23.0994 13.4144 22.8132 12.6177C22.5269 11.821 22.1065 11.0968 21.5761 10.4865C21.0456 9.87617 20.4155 9.39167 19.7216 9.06067C19.0277 8.72966 18.2837 8.55861 17.532 8.5573C16.7803 8.55599 16.0357 8.72443 15.3406 9.05301C14.6456 9.3816 14.0138 9.86389 13.4812 10.4723C12.9486 11.0808 12.5257 11.8035 12.2367 12.5992C11.9476 13.3949 11.7981 14.248 11.7966 15.1098C11.7951 15.9716 11.9416 16.8252 12.2279 17.6219C12.5142 18.4186 12.9345 19.1428 13.465 19.7531C13.9954 20.3634 14.6256 20.8479 15.3195 21.1789C16.0134 21.5099 16.7574 21.681 17.5091 21.6823Z" fill="#F2D336"/>
<path d="M43.4374 25.2917C38.578 27.5834 32.427 27.7969 27.6405 25.0417C26.9322 24.6354 27.0572 24.25 27.0676 23.4011C27.0989 20.5052 27.9461 17.967 29.6093 15.7865C33.1978 11.0834 39.4583 11.5521 42.4583 16.5886C43.7985 18.8386 44.4669 21.2743 44.4635 23.8959C44.4583 24.7084 44.1093 24.9792 43.4374 25.2917ZM42.3801 23.2448C42.0312 19.3646 39.8645 13.8438 34.9635 14.6094C31.1353 15.2084 29.2655 19.7917 29.1614 23.2761C29.1544 23.4566 29.2343 23.5816 29.401 23.6511C33.651 25.4636 37.901 25.4549 42.151 23.625C42.3211 23.5521 42.3975 23.4254 42.3801 23.2448Z" fill="#F2D336"/>
<path d="M29.458 30.8125C31.5413 32.8281 36.2653 39.2604 34.1663 42.0313C33.6906 42.6632 33.2358 43.2535 32.8018 43.8021C23.2601 43.7465 13.7393 43.7153 4.23926 43.7083C2.1837 43.7083 0.881619 42.6927 0.333008 40.6615V39.6042C4.05697 26.4531 18.8382 22.1823 29.458 30.8125Z" fill="#FFEFA0"/>
<path d="M35.562 43.8021C38.7339 39.1354 34.5308 33.4427 31.5151 29.8541C38.911 27.875 46.3381 31.2396 49.1766 38.3385C50.4943 41.6302 49.3953 43.7812 45.7547 43.7552C42.4075 43.7274 39.0099 43.743 35.562 43.8021Z" fill="#FFEFA0"/>
<path d="M31.5153 29.8542C34.5309 33.4427 38.7341 39.1354 35.5622 43.8021C34.5153 44.5729 33.8382 45.0313 32.8018 43.8021C33.2358 43.2535 33.6906 42.6632 34.1663 42.0313C36.2653 39.2604 31.5413 32.8281 29.458 30.8125C29.6507 29.6511 30.4945 29.0833 31.5153 29.8542Z" fill="#F2D336"/>
</g>
<defs>
<clipPath id="clip0_2857_1528">
<rect width="50" height="50" fill="white" transform="translate(0.333008)"/>
</clipPath>
</defs>
</svg>
