<svg width="50" height="50" viewBox="0 0 50 50" fill="none" xmlns="http://www.w3.org/2000/svg">
<path d="M14.8071 20.7344C16.9946 22.0434 19.3505 22.2101 21.8748 21.2344C22.0653 21.1604 22.2694 21.1282 22.4734 21.1399C22.6774 21.1516 22.8764 21.207 23.0572 21.3023C23.2379 21.3976 23.3961 21.5306 23.5209 21.6923C23.6458 21.854 23.7345 22.0406 23.7811 22.2396L23.854 22.5469C23.9271 22.8613 23.8827 23.1915 23.7292 23.4755C23.5757 23.7594 23.3237 23.9775 23.0207 24.0885C21.163 24.7691 19.3905 25.1198 17.703 25.1406" stroke="#4C7FF7" stroke-width="0.784314"/>
<path d="M30.4372 15.4479L30.2653 20.1562C30.2549 20.434 30.3712 20.5052 30.6142 20.3698C30.7427 20.3003 30.8903 20.1527 31.057 19.927" stroke="#4C7FF7" stroke-width="0.784314"/>
<path d="M29.3019 24.2396C27.8228 23.5625 27.0832 22.5139 27.0832 21.0937C27.0866 17.8507 27.0832 14.6597 27.0728 11.5208" stroke="#4C7FF7" stroke-width="0.784314"/>
<path d="M7.28125 39.2812C10.6094 41.9792 14.8125 42.625 19.0781 42.75C19.3799 42.7589 19.6682 42.8781 19.8888 43.0852C20.1093 43.2923 20.247 43.5732 20.276 43.875L20.3073 44.1719C20.408 45.2378 19.9219 45.7795 18.849 45.7969C15.7413 45.842 12.6042 45.3247 9.4375 44.2448" stroke="#4C7FF7" stroke-width="0.784314"/>
<path d="M35.479 34.3802C35.3748 40.2916 30.8748 43.6927 25.5311 44.9323C25.3781 44.9675 25.2197 44.9719 25.065 44.9453C24.9103 44.9187 24.7625 44.8615 24.6302 44.7772C24.4978 44.6928 24.3836 44.5829 24.2941 44.454C24.2047 44.325 24.1418 44.1795 24.1092 44.026L24.0363 43.6927C23.8279 42.717 24.2081 42.1024 25.1769 41.8489C28.7915 40.901 32.4998 38.4583 32.3019 34.3802" stroke="#4C7FF7" stroke-width="0.784314"/>
<path d="M14.8075 20.7343C16.995 22.0434 19.3509 22.21 21.8752 21.2343C22.0656 21.1604 22.2698 21.1282 22.4737 21.1399C22.6777 21.1516 22.8768 21.207 23.0575 21.3023C23.2382 21.3976 23.3964 21.5306 23.5213 21.6923C23.6462 21.854 23.7349 22.0406 23.7814 22.2396L23.8544 22.5468C23.9274 22.8612 23.8831 23.1915 23.7296 23.4755C23.5761 23.7594 23.3241 23.9774 23.021 24.0885C21.1634 24.7691 19.3908 25.1198 17.7033 25.1406C17.1582 24.9427 16.5488 24.7465 15.8752 24.5521C9.31789 22.6823 6.65644 15.5625 9.54185 9.71351C12.2085 4.31768 19.3283 2.56768 24.5471 5.97393C25.4498 6.56421 25.5696 7.28296 24.9064 8.13018L24.7137 8.37497C24.5257 8.61631 24.2545 8.77888 23.953 8.83089C23.6515 8.8829 23.3415 8.82062 23.0835 8.65622C14.5575 3.21872 6.70331 15.1458 14.8075 20.7343Z" fill="#2944F5"/>
<path d="M30.4373 15.4479L30.2655 20.1562C30.255 20.434 30.3714 20.5052 30.6144 20.3698C30.7429 20.3003 30.8905 20.1528 31.0571 19.9271C32.0953 19.2778 33.1335 18.5989 34.1717 17.8906C35.2915 17.125 36.8748 18.5781 36.328 19.8125C36.1682 20.1666 35.7898 20.5642 35.1925 21.0052C33.2655 22.4323 31.3019 23.5104 29.3019 24.2396C27.8228 23.5625 27.0832 22.5139 27.0832 21.0937C27.0866 17.8507 27.0832 14.6597 27.0728 11.5208C27.0884 6.69269 27.63 4.18227 33.1196 4.17186C36.446 4.16491 39.7724 4.16144 43.0988 4.16144C48.8905 4.15623 47.9269 10.625 47.9113 14.4583C47.9044 16.3715 47.6804 17.7205 47.2394 18.5052C45.755 21.1562 42.6769 20.9844 39.7238 20.75C39.4206 20.7251 39.1368 20.591 38.9251 20.3726C38.7133 20.1542 38.5881 19.8663 38.5728 19.5625L38.5571 19.2396C38.5465 19.0427 38.5761 18.8457 38.644 18.6607C38.712 18.4756 38.8169 18.3063 38.9523 18.1631C39.0878 18.0198 39.2509 17.9056 39.4319 17.8274C39.6129 17.7493 39.8079 17.7087 40.005 17.7083H43.3592C43.7396 17.7069 44.1039 17.5554 44.3723 17.287C44.6408 17.0185 44.7915 16.655 44.7915 16.276V8.85415C44.7915 8.43975 44.6269 8.04232 44.3339 7.74929C44.0408 7.45627 43.6434 7.29165 43.229 7.29165H31.5988C31.4192 7.29158 31.2415 7.32751 31.076 7.39731C30.9105 7.46711 30.7608 7.56936 30.6355 7.69803C30.5102 7.82669 30.412 7.97916 30.3467 8.14642C30.2813 8.31369 30.2502 8.49235 30.255 8.67186L30.4373 15.4479Z" fill="#2944F5"/>
<path d="M27.0728 11.5209C27.0832 14.6597 27.0867 17.8507 27.0832 21.0938C27.0832 22.5139 27.8228 23.5625 29.302 24.2396C25.9791 27.4479 21.4114 28.1875 17.703 25.1407C19.3905 25.1198 21.1631 24.7691 23.0207 24.0886C23.3238 23.9775 23.5758 23.7595 23.7293 23.4755C23.8828 23.1916 23.9272 22.8613 23.8541 22.5469L23.7812 22.2396C23.7346 22.0407 23.6459 21.854 23.521 21.6923C23.3961 21.5306 23.238 21.3976 23.0572 21.3023C22.8765 21.207 22.6774 21.1517 22.4734 21.1399C22.2695 21.1282 22.0654 21.1604 21.8749 21.2344C19.3506 22.2101 16.9947 22.0434 14.8072 20.7344C13.5468 13.3802 20.3489 8.02086 27.0728 11.5209Z" fill="#6EB9F8"/>
<path d="M30.4377 15.4479C31.2293 16.8959 31.4359 18.3889 31.0574 19.9271C30.8908 20.1528 30.7432 20.3004 30.6147 20.3698C30.3717 20.5052 30.2554 20.434 30.2658 20.1563L30.4377 15.4479Z" fill="#6EB9F8"/>
<path d="M7.28123 39.2813C10.6094 41.9792 14.8125 42.625 19.0781 42.75C19.3799 42.7589 19.6682 42.8781 19.8887 43.0852C20.1093 43.2924 20.247 43.5732 20.276 43.875L20.3073 44.1719C20.408 45.2379 19.9219 45.7795 18.8489 45.7969C15.7413 45.842 12.6041 45.3247 9.43748 44.2448C5.04685 42.0104 2.03123 39.5521 2.09373 34.3125C2.1406 30.0886 5.01039 28.9532 8.72394 29.1927C10.1979 29.2865 10.8802 30.8594 9.85414 31.8334C9.1406 32.5104 7.59373 32.3073 6.63539 32.2917C6.32521 32.2861 6.02298 32.3901 5.78194 32.5854C5.54089 32.7807 5.37649 33.0548 5.31769 33.3594C4.85935 35.7032 5.51387 37.6771 7.28123 39.2813Z" fill="#2944F5"/>
<path d="M35.479 34.3802C35.3749 40.2917 30.8748 43.6927 25.5311 44.9323C25.3782 44.9675 25.2197 44.972 25.0651 44.9453C24.9104 44.9187 24.7626 44.8615 24.6302 44.7772C24.4979 44.6928 24.3836 44.583 24.2942 44.454C24.2047 44.325 24.1419 44.1796 24.1092 44.0261L24.0363 43.6927C23.828 42.717 24.2082 42.1024 25.1769 41.849C28.7915 40.901 32.4998 38.4583 32.3019 34.3802C32.4478 32.6875 31.5519 32.2813 30.0155 32.2865C24.6856 32.3038 19.2464 32.2969 13.6978 32.2656C13.3768 32.2629 13.07 32.1336 12.8446 31.9062C12.6191 31.6788 12.4933 31.3717 12.4946 31.0521V30.6875C12.4981 29.684 13.0033 29.1823 14.0103 29.1823C19.3922 29.1719 24.7498 29.1788 30.0832 29.2031C33.4964 29.217 35.295 30.9427 35.479 34.3802Z" fill="#2944F5"/>
<path d="M32.3019 34.3802C32.4998 38.4583 28.7915 40.901 25.1769 41.849C24.2082 42.1024 23.828 42.717 24.0363 43.6927L24.1092 44.026C24.1418 44.1796 24.2047 44.325 24.2942 44.454C24.3836 44.583 24.4978 44.6928 24.6302 44.7772C24.7626 44.8615 24.9104 44.9187 25.065 44.9453C25.2197 44.972 25.3781 44.9675 25.5311 44.9323C30.8748 43.6927 35.3748 40.2917 35.479 34.3802C37.3575 34.658 38.3662 35.6563 38.505 37.375C38.821 41.2292 37.3644 44.1458 34.1352 46.125C27.3852 50.2552 15.3332 50.1406 9.43733 44.2448C12.604 45.3247 15.7412 45.842 18.8488 45.7969C19.9217 45.7795 20.4078 45.2378 20.3071 44.1719L20.2759 43.875C20.2469 43.5732 20.1091 43.2923 19.8886 43.0852C19.668 42.8781 19.3798 42.7589 19.078 42.75C14.8123 42.625 10.6092 41.9792 7.28108 39.2812C7.17171 35.9844 8.01546 34.3802 11.5415 34.3802C18.4443 34.3733 25.3644 34.3733 32.3019 34.3802Z" fill="#6EB9F8"/>
</svg>
